{"title":"Orcs.2011.HDRip.x264.AC3.RoSub-Psycho","uid":6710494,"size":688816064,"categoryP":"video","categoryS":"movies","magnet":"?xt=urn:btih:e746c405aa4d62d707fe8ea758b3d07c57b0cb84&amp;dn=Orcs.2011.HDRip.x264.AC3.RoSub-Psycho&amp;tr=udp%3A%2F%2Ftracker.openbittorrent.com%3A80&amp;tr=udp%3A%2F%2Fopen.demonii.com%3A1337&amp;tr=udp%3A%2F%2Ftracker.coppersurfer.tk%3A6969&amp;tr=udp%3A%2F%2Fexodus.desync.com%3A6969","seeders":0,"leechers":0,"uploader":"Francisco1206","files":-1,"time":1317334500,"description":"Faced with extinction, two park rangers are forced to defend the national park against hordes of rampaging orcs. Ancient and long forgotten, these orcs are unleashed from the depths of the mountains, and they won't stop until we're all dead.\n\nIMDB rating: 3.6/10 (from 494 users)\n\nCAST: Adam Johnson,Maclain Nelson,Brad Johnson\n\nGenereal\nFormat                           : Matroska\nFile size                        : 649 MiB\nDuration                         : 1h 19mn\nOverall bit rate                 : 1 135 Kbps\nEncoded date                     : UTC 2011-09-29 18:55:07\nWriting application              : mkvmerge v4.9.1 ('Ich will') creado el Jul 11 2011 23:53:15\nWriting library                  : libebml v1.2.1 + libmatroska v1.1.1\n\nVideo\nID                               : 1\nFormat                           : AVC\nFormat/Info                      : Advanced Video Codec\nFormat profile                   : &lt;a class=&quot;__cf_email__&quot; href=&quot;/cdn-cgi/l/email-protection&quot; data-cfemail=&quot;aae7cbc3c4eae699849a&quot;&gt;[email&amp;#160;protected]&lt;/a&gt;&lt;script data-cfhash='f9e31' type=&quot;text/javascript&quot;&gt;\n/* &lt;![CDATA[ */!function(){try{var t=&quot;currentScript&quot;in document?document.currentScript:function(){for(var t=document.getElementsByTagName(&quot;script&quot;),e=t.length;e--;)if(t[e].getAttribute(&quot;data-cfhash&quot;))return t[e]}();if(t&amp;&amp;t.previousSibling){var e,r,n,i,c=t.previousSibling,a=c.getAttribute(&quot;data-cfemail&quot;);if(a){for(e=&quot;&quot;,r=parseInt(a.substr(0,2),16),n=2;a.length-n;n+=2)i=parseInt(a.substr(n,2),16)^r,e+=String.fromCharCode(i);e=document.createTextNode(e),c.parentNode.replaceChild(e,c)}t.parentNode.removeChild(t);}}catch(u){}}()/* ]]&gt; */&lt;/script&gt;\nFormat settings, CABAC           : Yes\nFormat settings, ReFrames        : 4 frames\nMuxing mode                      : Container profile=&lt;a class=&quot;__cf_email__&quot; href=&quot;/cdn-cgi/l/email-protection&quot; data-cfemail=&quot;33665d585d5c445d73001d03&quot;&gt;[email&amp;#160;protected]&lt;/a&gt;&lt;script data-cfhash='f9e31' type=&quot;text/javascript&quot;&gt;\n/* &lt;![CDATA[ */!function(){try{var t=&quot;currentScript&quot;in document?document.currentScript:function(){for(var t=document.getElementsByTagName(&quot;script&quot;),e=t.length;e--;)if(t[e].getAttribute(&quot;data-cfhash&quot;))return t[e]}();if(t&amp;&amp;t.previousSibling){var e,r,n,i,c=t.previousSibling,a=c.getAttribute(&quot;data-cfemail&quot;);if(a){for(e=&quot;&quot;,r=parseInt(a.substr(0,2),16),n=2;a.length-n;n+=2)i=parseInt(a.substr(n,2),16)^r,e+=String.fromCharCode(i);e=document.createTextNode(e),c.parentNode.replaceChild(e,c)}t.parentNode.removeChild(t);}}catch(u){}}()/* ]]&gt; */&lt;/script&gt;\nCodec ID                         : V_MPEG4/ISO/AVC\nDuration                         : 1h 19mn\nBit rate                         : 984 Kbps\nNominal bit rate                 : 1 006 Kbps\nWidth                            : 624 pixels\nHeight                           : 352 pixels\nDisplay aspect ratio             : 16:9\nFrame rate mode                  : Variable\nFrame rate                       : 23.976 fps\nResolution                       : 8 bits\nColorimetry                      : 4:2:0\nScan type                        : Progressive\nBits/(Pixel*Frame)               : 0.187\nStream size                      : 562 MiB (87%)\nWriting library                  : x264 core 112\n\nAudio\nID                               : 2\nFormat                           : AC-3\nFormat/Info                      : Audio Coding 3\nCodec ID                         : A_AC3\nDuration                         : 1h 19mn\nBit rate mode                    : Constant\nBit rate                         : 128 Kbps\nChannel(s)                       : 2 channels\nChannel positions                : Front: L R\nSampling rate                    : 48.0 KHz\nStream size                      : 73.2 MiB (11%)\n\nText(subtitles)\nID                               : 3\nFormat                           : UTF-8\nCodec ID                         : S_TEXT/UTF8\nCodec ID/Info                    : UTF-8 Plain Text\nLanguage                         : ROMANIAN\n\nRecommended player :VLC media player....http://www.videolan.org/vlc/\n\nSEED back for SPEED \n","torrent":{"xt":"urn:btih:e746c405aa4d62d707fe8ea758b3d07c57b0cb84","amp;dn":"Orcs.2011.HDRip.x264.AC3.RoSub-Psycho","amp;tr":["udp%3A%2F%2Ftracker.openbittorrent.com%3A80","udp%3A%2F%2Fopen.demonii.com%3A1337","udp%3A%2F%2Ftracker.coppersurfer.tk%3A6969","udp%3A%2F%2Fexodus.desync.com%3A6969"],"infoHash":"e746c405aa4d62d707fe8ea758b3d07c57b0cb84","infoHashBuffer":{"type":"Buffer","data":[231,70,196,5,170,77,98,215,7,254,142,167,88,179,208,124,87,176,203,132]},"announce":[],"urlList":[]}}